<mxfile host="Electron" agent="Mozilla/5.0 (Macintosh; Intel Mac OS X 10_15_7) AppleWebKit/537.36 (KHTML, like Gecko) draw.io/26.0.4 Chrome/128.0.6613.186 Electron/32.2.5 Safari/537.36" version="26.0.4">
  <diagram name="Page-1" id="8C9S0IxvHHdKrK2HZV7g">
    <mxGraphModel dx="1242" dy="878" grid="1" gridSize="10" guides="1" tooltips="1" connect="1" arrows="1" fold="1" page="1" pageScale="1" pageWidth="850" pageHeight="1100" math="0" shadow="0">
      <root>
        <mxCell id="0" />
        <mxCell id="1" parent="0" />
        <mxCell id="ZRBsYQfXwdnTBhV-KQMS-2" style="edgeStyle=orthogonalEdgeStyle;rounded=0;orthogonalLoop=1;jettySize=auto;html=1;" parent="1" source="6Ooo95uhIpiJM5B1U0vj-14" edge="1">
          <mxGeometry relative="1" as="geometry">
            <mxPoint x="100" y="445" as="targetPoint" />
          </mxGeometry>
        </mxCell>
        <mxCell id="6Ooo95uhIpiJM5B1U0vj-14" value="" style="rounded=1;whiteSpace=wrap;html=1;" parent="1" vertex="1">
          <mxGeometry x="125" y="320" width="705" height="250" as="geometry" />
        </mxCell>
        <mxCell id="6Ooo95uhIpiJM5B1U0vj-15" value="&lt;span style=&quot;font-family: &amp;quot;Courier New&amp;quot;; font-size: 18px;&quot;&gt;Shared Object Storage (S3, GCS, Azblob, etc.)&lt;/span&gt;" style="shape=datastore;whiteSpace=wrap;html=1;fillColor=#ffe6cc;strokeColor=#d79b00;" parent="1" vertex="1">
          <mxGeometry x="120" y="610" width="710" height="110" as="geometry" />
        </mxCell>
        <mxCell id="6Ooo95uhIpiJM5B1U0vj-19" value="" style="endArrow=classic;html=1;rounded=0;entryX=0.19;entryY=0.01;entryDx=0;entryDy=0;entryPerimeter=0;exitX=0.5;exitY=1;exitDx=0;exitDy=0;strokeWidth=1;" parent="1" target="6Ooo95uhIpiJM5B1U0vj-15" edge="1">
          <mxGeometry width="50" height="50" relative="1" as="geometry">
            <mxPoint x="255" y="510" as="sourcePoint" />
            <mxPoint x="48" y="455" as="targetPoint" />
          </mxGeometry>
        </mxCell>
        <mxCell id="6Ooo95uhIpiJM5B1U0vj-20" value="" style="endArrow=classic;html=1;rounded=0;strokeWidth=1;entryX=0.5;entryY=1;entryDx=0;entryDy=0;exitX=0.507;exitY=-0.024;exitDx=0;exitDy=0;exitPerimeter=0;" parent="1" source="6Ooo95uhIpiJM5B1U0vj-15" target="dBSBBZC7uQuAuKR4RpET-7" edge="1">
          <mxGeometry width="50" height="50" relative="1" as="geometry">
            <mxPoint x="477.08" y="610" as="sourcePoint" />
            <mxPoint x="477.08" y="520" as="targetPoint" />
          </mxGeometry>
        </mxCell>
        <mxCell id="6Ooo95uhIpiJM5B1U0vj-21" value="" style="endArrow=classic;html=1;rounded=0;strokeWidth=1;entryX=0.528;entryY=1.011;entryDx=0;entryDy=0;exitX=0.839;exitY=0.021;exitDx=0;exitDy=0;exitPerimeter=0;entryPerimeter=0;" parent="1" source="6Ooo95uhIpiJM5B1U0vj-15" target="dBSBBZC7uQuAuKR4RpET-12" edge="1">
          <mxGeometry width="50" height="50" relative="1" as="geometry">
            <mxPoint x="500" y="620" as="sourcePoint" />
            <mxPoint x="715" y="505" as="targetPoint" />
          </mxGeometry>
        </mxCell>
        <mxCell id="6Ooo95uhIpiJM5B1U0vj-22" value="" style="endArrow=classic;html=1;rounded=0;entryX=0.25;entryY=0;entryDx=0;entryDy=0;" parent="1" edge="1">
          <mxGeometry width="50" height="50" relative="1" as="geometry">
            <mxPoint x="200" y="280" as="sourcePoint" />
            <mxPoint x="200" y="370" as="targetPoint" />
          </mxGeometry>
        </mxCell>
        <mxCell id="6Ooo95uhIpiJM5B1U0vj-23" value="" style="endArrow=classic;html=1;rounded=0;entryX=0.25;entryY=0;entryDx=0;entryDy=0;" parent="1" edge="1">
          <mxGeometry width="50" height="50" relative="1" as="geometry">
            <mxPoint x="240" y="280" as="sourcePoint" />
            <mxPoint x="240" y="370" as="targetPoint" />
          </mxGeometry>
        </mxCell>
        <mxCell id="6Ooo95uhIpiJM5B1U0vj-24" value="" style="endArrow=classic;html=1;rounded=0;entryX=0.25;entryY=0;entryDx=0;entryDy=0;" parent="1" edge="1">
          <mxGeometry width="50" height="50" relative="1" as="geometry">
            <mxPoint x="280" y="280" as="sourcePoint" />
            <mxPoint x="280" y="370" as="targetPoint" />
          </mxGeometry>
        </mxCell>
        <mxCell id="6Ooo95uhIpiJM5B1U0vj-25" value="&lt;font face=&quot;Courier New&quot; style=&quot;font-size: 18px;&quot;&gt;Real-time Ingestion&lt;/font&gt;" style="text;html=1;align=center;verticalAlign=middle;whiteSpace=wrap;rounded=0;" parent="1" vertex="1">
          <mxGeometry x="170" y="228" width="140" height="50" as="geometry" />
        </mxCell>
        <mxCell id="6Ooo95uhIpiJM5B1U0vj-26" value="&lt;font face=&quot;Courier New&quot; style=&quot;font-size: 18px;&quot;&gt;Regular Queries&lt;/font&gt;" style="text;html=1;align=center;verticalAlign=middle;whiteSpace=wrap;rounded=0;" parent="1" vertex="1">
          <mxGeometry x="410" y="228" width="140" height="50" as="geometry" />
        </mxCell>
        <mxCell id="6Ooo95uhIpiJM5B1U0vj-27" value="" style="endArrow=classic;html=1;rounded=0;entryX=0.25;entryY=0;entryDx=0;entryDy=0;" parent="1" edge="1">
          <mxGeometry width="50" height="50" relative="1" as="geometry">
            <mxPoint x="440" y="370" as="sourcePoint" />
            <mxPoint x="440" y="280" as="targetPoint" />
          </mxGeometry>
        </mxCell>
        <mxCell id="6Ooo95uhIpiJM5B1U0vj-28" value="" style="endArrow=classic;html=1;rounded=0;entryX=0.25;entryY=0;entryDx=0;entryDy=0;" parent="1" edge="1">
          <mxGeometry width="50" height="50" relative="1" as="geometry">
            <mxPoint x="479.57" y="370" as="sourcePoint" />
            <mxPoint x="479.57" y="280" as="targetPoint" />
          </mxGeometry>
        </mxCell>
        <mxCell id="6Ooo95uhIpiJM5B1U0vj-29" value="" style="endArrow=classic;html=1;rounded=0;entryX=0.25;entryY=0;entryDx=0;entryDy=0;" parent="1" edge="1">
          <mxGeometry width="50" height="50" relative="1" as="geometry">
            <mxPoint x="520" y="370" as="sourcePoint" />
            <mxPoint x="520" y="280" as="targetPoint" />
          </mxGeometry>
        </mxCell>
        <mxCell id="6Ooo95uhIpiJM5B1U0vj-30" value="&lt;font face=&quot;Courier New&quot;&gt;&lt;span style=&quot;font-size: 18px;&quot;&gt;Heavy Queries&lt;/span&gt;&lt;/font&gt;&lt;div&gt;&lt;font face=&quot;Courier New&quot;&gt;&lt;span style=&quot;font-size: 18px;&quot;&gt;or Peak Workload&lt;/span&gt;&lt;/font&gt;&lt;/div&gt;" style="text;html=1;align=center;verticalAlign=middle;whiteSpace=wrap;rounded=0;" parent="1" vertex="1">
          <mxGeometry x="630" y="228" width="175" height="50" as="geometry" />
        </mxCell>
        <mxCell id="6Ooo95uhIpiJM5B1U0vj-31" value="" style="endArrow=classic;html=1;rounded=0;entryX=0.25;entryY=0;entryDx=0;entryDy=0;exitX=0.279;exitY=0.008;exitDx=0;exitDy=0;exitPerimeter=0;" parent="1" edge="1">
          <mxGeometry width="50" height="50" relative="1" as="geometry">
            <mxPoint x="665.22" y="375.96000000000004" as="sourcePoint" />
            <mxPoint x="664.5699999999999" y="280" as="targetPoint" />
          </mxGeometry>
        </mxCell>
        <mxCell id="6Ooo95uhIpiJM5B1U0vj-32" value="" style="endArrow=classic;html=1;rounded=0;entryX=0.25;entryY=0;entryDx=0;entryDy=0;exitX=0.5;exitY=0;exitDx=0;exitDy=0;" parent="1" edge="1">
          <mxGeometry width="50" height="50" relative="1" as="geometry">
            <mxPoint x="705" y="375" as="sourcePoint" />
            <mxPoint x="704.14" y="280" as="targetPoint" />
          </mxGeometry>
        </mxCell>
        <mxCell id="6Ooo95uhIpiJM5B1U0vj-33" value="" style="endArrow=classic;html=1;rounded=0;entryX=0.25;entryY=0;entryDx=0;entryDy=0;exitX=0.727;exitY=0.003;exitDx=0;exitDy=0;exitPerimeter=0;" parent="1" edge="1">
          <mxGeometry width="50" height="50" relative="1" as="geometry">
            <mxPoint x="745.8599999999999" y="375.3599999999999" as="sourcePoint" />
            <mxPoint x="744.5699999999999" y="280" as="targetPoint" />
          </mxGeometry>
        </mxCell>
        <mxCell id="ZRBsYQfXwdnTBhV-KQMS-1" value="&lt;font style=&quot;font-size: 18px;&quot; face=&quot;Courier New&quot;&gt;Metadata&lt;/font&gt;&lt;div&gt;&lt;font style=&quot;font-size: 18px;&quot; face=&quot;Courier New&quot;&gt;&lt;span style=&quot;background-color: transparent; color: light-dark(rgb(0, 0, 0), rgb(255, 255, 255));&quot;&gt;Service&lt;/span&gt;&lt;/font&gt;&lt;/div&gt;" style="rounded=1;whiteSpace=wrap;html=1;fillColor=#fad9d5;strokeColor=#ae4132;" parent="1" vertex="1">
          <mxGeometry x="10" y="345" width="90" height="205" as="geometry" />
        </mxCell>
        <mxCell id="ZRBsYQfXwdnTBhV-KQMS-3" value="&lt;font face=&quot;Courier New&quot;&gt;ScopeDB&lt;/font&gt;&lt;div&gt;&lt;font face=&quot;Courier New&quot;&gt;Deployment&lt;/font&gt;&lt;/div&gt;" style="text;html=1;align=center;verticalAlign=middle;whiteSpace=wrap;rounded=0;" parent="1" vertex="1">
          <mxGeometry x="750" y="530" width="60" height="30" as="geometry" />
        </mxCell>
        <mxCell id="dBSBBZC7uQuAuKR4RpET-2" value="&lt;font face=&quot;Courier New&quot; style=&quot;font-size: 16px;&quot;&gt;Stateless Nodes&lt;/font&gt;&lt;div&gt;&lt;font face=&quot;Courier New&quot; style=&quot;font-size: 16px;&quot;&gt;{nodegroup=ingest}&lt;/font&gt;&lt;/div&gt;&lt;div&gt;&lt;font face=&quot;Courier New&quot; style=&quot;font-size: 16px;&quot;&gt;&lt;br&gt;&lt;/font&gt;&lt;/div&gt;&lt;div&gt;&lt;font face=&quot;Courier New&quot; style=&quot;font-size: 16px;&quot;&gt;&lt;br&gt;&lt;/font&gt;&lt;/div&gt;&lt;div&gt;&lt;font face=&quot;Courier New&quot; style=&quot;font-size: 16px;&quot;&gt;&lt;br&gt;&lt;/font&gt;&lt;/div&gt;&lt;div&gt;&lt;font face=&quot;Courier New&quot; style=&quot;font-size: 16px;&quot;&gt;&lt;br&gt;&lt;/font&gt;&lt;/div&gt;&lt;div&gt;&lt;font face=&quot;Courier New&quot; style=&quot;font-size: 16px;&quot;&gt;&lt;br&gt;&lt;/font&gt;&lt;/div&gt;" style="rounded=1;whiteSpace=wrap;html=1;" parent="1" vertex="1">
          <mxGeometry x="150" y="370" width="200" height="140" as="geometry" />
        </mxCell>
        <mxCell id="dBSBBZC7uQuAuKR4RpET-3" value="" style="endArrow=classic;html=1;rounded=0;entryX=0.25;entryY=0;entryDx=0;entryDy=0;" parent="1" edge="1">
          <mxGeometry width="50" height="50" relative="1" as="geometry">
            <mxPoint x="220" y="280" as="sourcePoint" />
            <mxPoint x="220" y="370" as="targetPoint" />
          </mxGeometry>
        </mxCell>
        <mxCell id="dBSBBZC7uQuAuKR4RpET-4" value="" style="endArrow=classic;html=1;rounded=0;entryX=0.25;entryY=0;entryDx=0;entryDy=0;" parent="1" edge="1">
          <mxGeometry width="50" height="50" relative="1" as="geometry">
            <mxPoint x="260" y="280" as="sourcePoint" />
            <mxPoint x="260" y="370" as="targetPoint" />
          </mxGeometry>
        </mxCell>
        <mxCell id="dBSBBZC7uQuAuKR4RpET-5" value="" style="html=1;whiteSpace=wrap;shape=isoCube2;backgroundOutline=1;isoAngle=15;fillColor=#d5e8d4;strokeColor=#82b366;" parent="1" vertex="1">
          <mxGeometry x="170" y="430" width="40" height="40" as="geometry" />
        </mxCell>
        <mxCell id="dBSBBZC7uQuAuKR4RpET-6" value="" style="html=1;whiteSpace=wrap;shape=isoCube2;backgroundOutline=1;isoAngle=15;fillColor=#d5e8d4;strokeColor=#82b366;" parent="1" vertex="1">
          <mxGeometry x="220" y="430" width="40" height="40" as="geometry" />
        </mxCell>
        <mxCell id="dBSBBZC7uQuAuKR4RpET-7" value="&lt;font face=&quot;Courier New&quot; style=&quot;font-size: 16px;&quot;&gt;Stateless Nodes&lt;/font&gt;&lt;div&gt;&lt;font face=&quot;Courier New&quot; style=&quot;font-size: 16px;&quot;&gt;{nodegroup=default}&lt;/font&gt;&lt;/div&gt;&lt;div&gt;&lt;font face=&quot;Courier New&quot; style=&quot;font-size: 16px;&quot;&gt;&lt;br&gt;&lt;/font&gt;&lt;/div&gt;&lt;div&gt;&lt;font face=&quot;Courier New&quot; style=&quot;font-size: 16px;&quot;&gt;&lt;br&gt;&lt;/font&gt;&lt;/div&gt;&lt;div&gt;&lt;font face=&quot;Courier New&quot; style=&quot;font-size: 16px;&quot;&gt;&lt;br&gt;&lt;/font&gt;&lt;/div&gt;&lt;div&gt;&lt;font face=&quot;Courier New&quot; style=&quot;font-size: 16px;&quot;&gt;&lt;br&gt;&lt;/font&gt;&lt;/div&gt;&lt;div&gt;&lt;font face=&quot;Courier New&quot; style=&quot;font-size: 16px;&quot;&gt;&lt;br&gt;&lt;/font&gt;&lt;/div&gt;" style="rounded=1;whiteSpace=wrap;html=1;" parent="1" vertex="1">
          <mxGeometry x="380" y="370" width="200" height="140" as="geometry" />
        </mxCell>
        <mxCell id="dBSBBZC7uQuAuKR4RpET-8" value="" style="html=1;whiteSpace=wrap;shape=isoCube2;backgroundOutline=1;isoAngle=15;fillColor=#e1d5e7;strokeColor=#9673a6;" parent="1" vertex="1">
          <mxGeometry x="388" y="420" width="60" height="60" as="geometry" />
        </mxCell>
        <mxCell id="dBSBBZC7uQuAuKR4RpET-10" value="" style="html=1;whiteSpace=wrap;shape=isoCube2;backgroundOutline=1;isoAngle=15;fillColor=#e1d5e7;strokeColor=#9673a6;" parent="1" vertex="1">
          <mxGeometry x="453" y="420" width="60" height="60" as="geometry" />
        </mxCell>
        <mxCell id="dBSBBZC7uQuAuKR4RpET-11" value="" style="html=1;whiteSpace=wrap;shape=isoCube2;backgroundOutline=1;isoAngle=15;fillColor=#e1d5e7;strokeColor=#9673a6;" parent="1" vertex="1">
          <mxGeometry x="517" y="420" width="60" height="60" as="geometry" />
        </mxCell>
        <mxCell id="dBSBBZC7uQuAuKR4RpET-12" value="&lt;font face=&quot;Courier New&quot; style=&quot;font-size: 16px;&quot;&gt;Stateless Nodes&lt;/font&gt;&lt;div&gt;&lt;font face=&quot;Courier New&quot; style=&quot;font-size: 16px;&quot;&gt;{nodegroup=heavy}&lt;/font&gt;&lt;/div&gt;&lt;div&gt;&lt;font face=&quot;Courier New&quot; style=&quot;font-size: 16px;&quot;&gt;(maybe-temporary)&lt;/font&gt;&lt;/div&gt;&lt;div&gt;&lt;font face=&quot;Courier New&quot; style=&quot;font-size: 16px;&quot;&gt;&lt;br&gt;&lt;/font&gt;&lt;/div&gt;&lt;div&gt;&lt;font face=&quot;Courier New&quot; style=&quot;font-size: 16px;&quot;&gt;&lt;br&gt;&lt;/font&gt;&lt;/div&gt;&lt;div&gt;&lt;font face=&quot;Courier New&quot; style=&quot;font-size: 16px;&quot;&gt;&lt;br&gt;&lt;/font&gt;&lt;/div&gt;&lt;div&gt;&lt;font face=&quot;Courier New&quot; style=&quot;font-size: 16px;&quot;&gt;&lt;br&gt;&lt;/font&gt;&lt;/div&gt;" style="rounded=1;whiteSpace=wrap;html=1;dashed=1;" parent="1" vertex="1">
          <mxGeometry x="610" y="370" width="200" height="140" as="geometry" />
        </mxCell>
        <mxCell id="dBSBBZC7uQuAuKR4RpET-13" value="" style="html=1;whiteSpace=wrap;shape=isoCube2;backgroundOutline=1;isoAngle=15;fillColor=#bac8d3;strokeColor=#23445d;" parent="1" vertex="1">
          <mxGeometry x="630" y="433" width="70" height="70" as="geometry" />
        </mxCell>
        <mxCell id="dBSBBZC7uQuAuKR4RpET-14" value="" style="html=1;whiteSpace=wrap;shape=isoCube2;backgroundOutline=1;isoAngle=15;fillColor=#bac8d3;strokeColor=#23445d;" parent="1" vertex="1">
          <mxGeometry x="710" y="433" width="70" height="70" as="geometry" />
        </mxCell>
      </root>
    </mxGraphModel>
  </diagram>
</mxfile>
